<?xml version="1.0" encoding="utf-8"?>
<!-- Generator: Adobe Illustrator 16.0.0, SVG Export Plug-In . SVG Version: 6.00 Build 0)  -->
<!DOCTYPE svg PUBLIC "-//W3C//DTD SVG 1.1//EN" "http://www.w3.org/Graphics/SVG/1.1/DTD/svg11.dtd">
<svg version="1.1" id="Layer_1" xmlns="http://www.w3.org/2000/svg" xmlns:xlink="http://www.w3.org/1999/xlink" x="0px" y="0px"
	 width="500px" height="500px" viewBox="0 0 500 500" enable-background="new 0 0 500 500" xml:space="preserve">
<g>
	<path fill-rule="evenodd" clip-rule="evenodd" fill="#5D5D5D" d="M262.531,426.803c-51.26,0.007-102.521,0.12-153.783-0.129
		c-6.84-0.033-11.818,1.92-16.439,6.907c-7.852,8.481-16.182,16.526-24.486,24.575c-7.951,7.701-17.461,8.22-24.07,1.618
		c-6.617-6.61-6.092-16.101,1.572-24.067c6.064-6.31,12.338-12.415,18.527-18.604C185.414,295.539,306.975,173.976,428.545,52.419
		c10.777-10.781,19.936-12.588,27.418-5.487c7.783,7.385,6.094,17.033-4.922,28.094c-1.322,1.328-2.502,2.854-4.002,3.944
		c-6.664,4.85-6.566,8.566,0.016,14.298c9.25,8.058,13.811,18.986,13.801,31.652c-0.07,85.646,0.051,171.29-0.092,256.938
		c-0.041,25.546-19.617,44.821-45.381,44.895C364.432,426.898,313.482,426.795,262.531,426.803z M133.098,394.236
		c1.451,1.925,3.506,1.107,5.244,1.108c90.357,0.047,180.717,0.071,271.076,0.003c14.711-0.013,19.963-5.56,19.971-20.827
		c0.047-80.666,0.018-161.331,0.041-242c0-4.416-0.117-8.784-2.258-12.782c-4.26-7.961-11.576-9.169-17.979-2.836
		c-11.109,10.992-21.924,22.302-33.268,33.046c-4.623,4.374-4.707,7.593-0.943,12.562c5.578,7.365,8.443,16.105,8.652,25.365
		c0.455,20.132-7.82,35.93-25.354,45.948c-17.279,9.872-34.955,8.915-51.445-1.898c-5.955-3.904-9.422-3.858-14.168,1.283
		c-8.266,8.952-16.961,17.532-25.844,25.878c-4.248,3.986-4.754,7.204-1.176,11.924c6.982,9.213,13.842,18.564,20.08,28.289
		c4.029,6.284,6.693,5.317,11.018,0.374c12.352-14.111,24.896-28.065,37.752-41.72c8.213-8.723,18.6-9.147,25.193-0.318
		c19.264,25.794,38.063,51.944,56.561,78.291c5.471,7.794,2.748,17.372-4.75,22.088c-7.857,4.943-16.078,3.102-22.752-5.91
		c-12.467-16.83-24.764-33.797-36.744-50.977c-4.182-5.994-7.027-7.305-12.381-1.018c-11.342,13.321-23.236,26.183-35.143,39.016
		c-11.729,12.645-21.363,12.008-31.393-1.932c-10.041-13.955-20.15-27.88-29.674-42.186c-4.17-6.263-6.711-5.945-11.789-0.796
		c-31.166,31.619-62.684,62.89-94.047,94.315C135.885,390.225,133.527,391.496,133.098,394.236z M334.01,207.852
		c11.58,0.119,20.068-11.655,16.352-22.676c-1.66-4.92-4.045-5.77-7.838-1.717c-4.229,4.521-8.836,8.694-13.053,13.225
		c-1.973,2.115-5.904,3.779-4.34,7.402C326.645,207.596,330.555,207.708,334.01,207.852z"/>
	<path fill-rule="evenodd" clip-rule="evenodd" fill="#5D5D5D" d="M39.17,241.955c0.004-38.122-0.057-76.24,0.027-114.359
		c0.063-28.719,18.75-47.358,47.57-47.382c76.865-0.062,153.73-0.021,230.592-0.021c1.564,0,3.129-0.033,4.688,0.036
		c9.813,0.44,16.42,6.63,16.541,15.472c0.123,8.796-6.523,15.368-16.146,15.847c-3.117,0.154-6.248,0.06-9.373,0.06
		c-73.113,0.004-146.229-0.006-219.342,0.012c-18.625,0.004-23.127,4.545-23.129,23.321c-0.016,73.113-0.008,146.229-0.008,219.344
		c0,3.122,0.1,6.256-0.07,9.369c-0.512,9.553-7.236,16.19-16.027,15.956c-8.486-0.227-14.729-6.642-15.252-15.797
		c-0.16-2.806-0.07-5.626-0.07-8.437C39.168,317.568,39.17,279.76,39.17,241.955z"/>
	<path fill-rule="evenodd" clip-rule="evenodd" fill="#5D5D5D" d="M220.588,216.86c-0.131,6.522-7.881,14.14-17.254,12.198
		c-7.076-1.465-10.146,1.211-13.5,6.405c-9.494,14.712-19.271,29.243-29.121,43.718c-6.959,10.227-15.684,12.672-23.705,7.035
		c-8.234-5.786-9.623-14.987-3.193-24.742c15.143-22.972,30.375-45.889,45.814-68.662c8.83-13.029,21.26-13.146,30.43-0.258
		C214.672,199.041,220.996,204.893,220.588,216.86z"/>
</g>
</svg>
